<?xml version="1.0" encoding="UTF-8" standalone="no"?>
<!DOCTYPE svg PUBLIC "-//W3C//DTD SVG 1.1//EN" "http://www.w3.org/Graphics/SVG/1.1/DTD/svg11.dtd">
<svg width="100%" height="100%" viewBox="0 0 670 929" version="1.1" xmlns="http://www.w3.org/2000/svg" xmlns:xlink="http://www.w3.org/1999/xlink" xml:space="preserve" xmlns:serif="http://www.serif.com/" style="fill-rule:evenodd;clip-rule:evenodd;stroke-linejoin:round;stroke-miterlimit:2;">
    <g transform="matrix(1,0,0,1,-689.197,-69.9981)">
        <g>
            <g transform="matrix(7.37235,0,0,7.37235,677.72,64.9506)">
                <g id="Map_pin_icon.svg">
                    <g>
                        <path id="path4127" d="M46.977,126.643C46.694,125.956 40.814,120.206 36.603,114.981C11.656,81.858 -16.158,51.083 16.32,13.683C30.701,-0.211 48.433,-1.003 66.663,5.473C117.992,35.175 80.829,83.628 56.427,115.481L46.977,126.643ZM62.417,75.872C96.654,51.387 70.185,4.239 32.569,19.913C21.585,25.77 16.135,35.961 15.944,47.981C15.42,59.674 21.629,69.452 31.47,75.441C38.526,79.282 41.627,79.975 49.616,79.499C54.794,79.191 57.777,78.345 62.417,75.872Z" style="fill:rgb(148,50,61);fill-opacity:0.98;fill-rule:nonzero;stroke:rgb(148,50,61);stroke-width:0.14px;"/>
                        <g id="path4129" transform="matrix(0.878295,0,0,1.0519,0.554741,-6.99527)">
                            <path d="M41.682,89.891C18.127,85.797 1.141,68.688 1.141,49.055C1.141,26.15 24.264,7.301 52.364,7.301C80.464,7.301 103.586,26.15 103.586,49.055C103.586,71.961 80.464,90.809 52.364,90.809C49.209,90.809 46.06,90.572 42.959,90.099" style="fill:rgb(148,50,61);fill-opacity:0.98;fill-rule:nonzero;stroke:rgb(148,50,61);stroke-width:0.14px;"/>
                        </g>
                        <g id="path4131" transform="matrix(1,0,0,1,0.645345,0)">
                            <path d="M43.631,69.129C31.67,67.07 23.045,58.469 23.045,48.599C23.045,37.084 34.786,27.608 49.055,27.608C63.324,27.608 75.066,37.084 75.066,48.599C75.066,60.114 63.324,69.59 49.055,69.59C47.453,69.59 45.854,69.471 44.279,69.233" style="fill-opacity:0;fill-rule:nonzero;"/>
                        </g>
                        <g id="path4135" transform="matrix(1,0,0,1,0.645345,0)">
                            <path d="M31.892,114.28C24.234,113.127 18.712,108.313 18.712,102.788C18.712,96.342 26.23,91.038 35.367,91.038C44.505,91.038 52.023,96.342 52.023,102.788C52.023,109.234 44.505,114.539 35.367,114.539C34.341,114.539 33.316,114.472 32.307,114.339" style="fill:rgb(0,0,128);fill-opacity:0;fill-rule:nonzero;"/>
                        </g>
                        <g id="path4149" transform="matrix(0.970205,0,0,1.02721,-4.05878,-5.75038)">
                            <path d="M45.521,84.824C29.678,81.536 18.253,67.792 18.253,52.021C18.253,33.622 33.806,18.481 52.706,18.481C71.606,18.481 87.159,33.622 87.159,52.021C87.159,70.421 71.606,85.561 52.706,85.561C50.584,85.561 48.466,85.371 46.38,84.991" style="fill:rgb(148,50,61);fill-rule:nonzero;stroke:rgb(148,50,61);stroke-width:0.14px;"/>
                        </g>
                        <g id="path4184" transform="matrix(0.646299,0,0,0.616811,5.12612,4.90138)">
                            <path d="M57.079,104.608C41.351,101.017 30.009,86.009 30.009,68.79C30.009,48.699 45.448,32.166 64.212,32.166C82.975,32.166 98.415,48.699 98.415,68.79C98.415,88.881 82.975,105.413 64.212,105.413C62.105,105.413 60.003,105.204 57.932,104.79" style="fill:white;fill-rule:nonzero;"/>
                        </g>
                    </g>
                </g>
            </g>
            <g transform="matrix(1.25934,0,0,1.25934,277.247,-202.325)">
                <circle cx="593.149" cy="488.729" r="213.039" style="fill:white;stroke:white;stroke-width:0.79px;stroke-linecap:round;stroke-miterlimit:1.5;"/>
            </g>
        </g>
    </g>
    <g transform="matrix(0.0465047,0,0,-0.0465047,139.742,578.22)">
        <path d="M5845,10194C5693,10171 5552,10091 5391,9935C5270,9819 5196,9727 5059,9522C4951,9362 4947,9358 4934,9381C4890,9459 4896,9546 4952,9690C4969,9734 4980,9773 4976,9777C4965,9788 4872,9735 4800,9677C4660,9563 4558,9405 4519,9244C4501,9169 4499,9134 4503,9020C4508,8873 4520,8823 4587,8680C4606,8639 4628,8590 4636,8573L4650,8541L4573,8495C4447,8421 4201,8300 4175,8300C4149,8300 4140,8320 4014,8670C3928,8911 3873,9024 3841,9028C3814,9032 3631,8969 3582,8940C3542,8915 3543,8912 3646,8799C3867,8556 3941,8423 4015,8136C4065,7942 4088,7760 4103,7439L4108,7353L3979,7331C3697,7284 3541,7209 3356,7031C3159,6841 3039,6620 3000,6380C2986,6286 2988,6126 3005,6024C3078,5602 3348,5272 3739,5130C3991,5038 4239,5033 4488,5115C4600,5152 4800,5253 4835,5290C4865,5321 4865,5323 4860,5408C4850,5577 4856,5763 4874,5850C4921,6079 5025,6305 5160,6470C5217,6540 5223,6554 5209,6602C5173,6736 4987,6998 4859,7094C4737,7186 4553,7274 4408,7310C4242,7351 4250,7329 4250,7727L4250,8035L4458,8143C4573,8202 4671,8250 4675,8250C4679,8250 4680,8196 4677,8130C4664,7873 4713,7691 4840,7518C4937,7386 5100,7281 5294,7225C5396,7196 5440,7193 5440,7215C5440,7224 5424,7262 5405,7301C5339,7430 5279,7650 5308,7650C5320,7650 5398,7598 5560,7481C5691,7386 5859,7300 5975,7268C6044,7249 6081,7246 6255,7246C6383,7245 6474,7250 6508,7258C6570,7272 6694,7328 6730,7357C6754,7378 6754,7378 6741,7456C6724,7556 6670,7724 6630,7798C6596,7861 6544,7925 6397,8086C6343,8144 6301,8194 6303,8197C6306,8199 6353,8187 6408,8171C6537,8133 6656,8117 6745,8125C6823,8132 7091,8188 7102,8199C7106,8203 7071,8248 7024,8299C6977,8351 6940,8400 6942,8409C6944,8418 6979,8439 7025,8458C7176,8520 7269,8572 7352,8638C7442,8711 7561,8851 7610,8942C7647,9011 7642,9033 7573,9081C7390,9212 7238,9268 6999,9290C6931,9297 6858,9306 6838,9311C6792,9323 6790,9339 6821,9441C6833,9479 6840,9516 6837,9523C6834,9530 6809,9541 6780,9548C6576,9595 6267,9491 6125,9326C6098,9295 6073,9270 6068,9270C6064,9270 6060,9291 6060,9318C6060,9367 6034,9474 5980,9645C5962,9700 5946,9775 5943,9812C5936,9901 5957,9943 6071,10064C6120,10115 6160,10162 6160,10168C6160,10173 6152,10181 6143,10185C6122,10194 5890,10200 5845,10194Z" style="fill:rgb(148,50,61);fill-rule:nonzero;"/>
        <path d="M1755,7509C1402,7464 1050,7211 888,6885C692,6494 734,6037 996,5687C1143,5491 1343,5352 1595,5270C1686,5240 1710,5237 1851,5232C2087,5225 2240,5255 2414,5342C2574,5423 2719,5537 2810,5655L2852,5709L2826,5817C2786,5987 2778,6055 2777,6205C2777,6406 2807,6545 2901,6783L2940,6882L2904,6942C2657,7348 2213,7567 1755,7509Z" style="fill:rgb(148,50,61);fill-rule:nonzero;"/>
        <path d="M5970,6729C5634,6657 5338,6423 5176,6103C5063,5877 5037,5519 5117,5267C5186,5045 5314,4857 5488,4718C5842,4437 6304,4382 6705,4574C6970,4701 7170,4920 7285,5209C7334,5334 7349,5424 7350,5607C7350,5778 7337,5864 7291,5989C7161,6343 6858,6621 6495,6716C6354,6753 6111,6759 5970,6729Z" style="fill:rgb(148,50,61);fill-rule:nonzero;"/>
        <path d="M2840,5384C2661,5220 2529,5139 2322,5070C2210,5033 2097,5020 1858,5020L1671,5020L1655,4963C1584,4721 1589,4485 1667,4265C1854,3741 2395,3416 2931,3506C3159,3544 3347,3634 3532,3793L3589,3842L3549,3922C3438,4143 3382,4446 3409,4685C3415,4740 3432,4834 3446,4893C3461,4953 3468,5005 3464,5009C3459,5013 3415,5045 3365,5081C3247,5164 3091,5316 3023,5413C2993,5455 2965,5490 2962,5490C2958,5489 2903,5442 2840,5384Z" style="fill:rgb(148,50,61);fill-rule:nonzero;"/>
        <path d="M4795,5018C4515,4877 4409,4848 4175,4848C4021,4848 3835,4868 3746,4895C3719,4903 3691,4910 3685,4910C3678,4910 3663,4866 3649,4808C3628,4719 3625,4682 3626,4530C3627,4337 3637,4278 3703,4115C3809,3851 4049,3607 4316,3491C4444,3436 4555,3410 4695,3403C5095,3384 5443,3544 5678,3856C5742,3940 5859,4171 5867,4227L5872,4268L5809,4298C5774,4315 5710,4343 5668,4360C5519,4421 5350,4540 5219,4677C5129,4771 5070,4853 5000,4980C4971,5032 4945,5078 4941,5082C4938,5085 4872,5057 4795,5018Z" style="fill:rgb(148,50,61);fill-rule:nonzero;"/>
        <path d="M1713,3628C1655,3542 1596,3412 1566,3309C1366,2607 1844,1907 2561,1852C2842,1830 3092,1891 3302,2032L3378,2084L3329,2183C3221,2398 3177,2590 3177,2845C3177,3021 3194,3131 3248,3291L3277,3376L3168,3343C3018,3298 2908,3280 2774,3280C2418,3280 2133,3386 1833,3631C1794,3664 1760,3690 1758,3690C1756,3690 1736,3662 1713,3628Z" style="fill:rgb(148,50,61);fill-rule:nonzero;"/>
        <path d="M3702,3621C3471,3359 3354,3017 3389,2705C3418,2448 3523,2223 3703,2032C3964,1757 4325,1636 4713,1695C4947,1730 5144,1827 5316,1992C5488,2157 5604,2366 5652,2599C5678,2722 5679,2901 5656,3023C5634,3137 5574,3323 5547,3356C5520,3391 5493,3386 5343,3316C5112,3210 5003,3185 4760,3187C4643,3187 4580,3193 4504,3209C4242,3264 4032,3371 3840,3547C3720,3657 3729,3652 3702,3621Z" style="fill:rgb(148,50,61);fill-rule:nonzero;"/>
        <path d="M3439,1868C3329,1785 3059,1674 2891,1644C2844,1636 2747,1629 2675,1628C2444,1627 2248,1676 2023,1789L1902,1849L1891,1802C1832,1554 1863,1274 1973,1055C2254,491 2904,250 3470,499C3739,617 3954,839 4070,1120C4131,1268 4166,1491 4130,1510C4122,1515 4054,1547 3980,1583C3829,1656 3714,1730 3595,1829C3551,1866 3510,1899 3504,1903C3498,1906 3469,1891 3439,1868Z" style="fill:rgb(148,50,61);fill-rule:nonzero;"/>
    </g>
</svg>
