<?xml version="1.0" encoding="UTF-8" standalone="no"?>
<!DOCTYPE svg PUBLIC "-//W3C//DTD SVG 1.1//EN" "http://www.w3.org/Graphics/SVG/1.1/DTD/svg11.dtd">
<svg width="100%" height="100%" viewBox="0 0 670 929" version="1.1" xmlns="http://www.w3.org/2000/svg" xmlns:xlink="http://www.w3.org/1999/xlink" xml:space="preserve" xmlns:serif="http://www.serif.com/" style="fill-rule:evenodd;clip-rule:evenodd;stroke-linecap:round;stroke-linejoin:round;stroke-miterlimit:1.5;">
    <g transform="matrix(1,0,0,1,-689.197,-69.9981)">
        <g>
            <g transform="matrix(7.37235,0,0,7.37235,677.72,64.9506)">
                <g id="Map_pin_icon.svg">
                    <g>
                        <path id="path4127" d="M46.977,126.643C46.694,125.956 40.814,120.206 36.603,114.981C11.656,81.858 -16.158,51.083 16.32,13.683C30.701,-0.211 48.433,-1.003 66.663,5.473C117.992,35.175 80.829,83.628 56.427,115.481L46.977,126.643ZM62.417,75.872C96.654,51.387 70.185,4.239 32.569,19.913C21.585,25.77 16.135,35.961 15.944,47.981C15.42,59.674 21.629,69.452 31.47,75.441C38.526,79.282 41.627,79.975 49.616,79.499C54.794,79.191 57.777,78.345 62.417,75.872Z" style="fill:rgb(101,180,255);fill-opacity:0.98;fill-rule:nonzero;"/>
                        <g id="path4129" transform="matrix(0.878295,0,0,1.0519,0.554741,-6.99527)">
                            <path d="M41.682,89.891C18.127,85.797 1.141,68.688 1.141,49.055C1.141,26.15 24.264,7.301 52.364,7.301C80.464,7.301 103.586,26.15 103.586,49.055C103.586,71.961 80.464,90.809 52.364,90.809C49.209,90.809 46.06,90.572 42.959,90.099" style="fill:rgb(101,180,255);fill-opacity:0.98;fill-rule:nonzero;"/>
                        </g>
                        <g id="path4131" transform="matrix(1,0,0,1,0.645345,0)">
                            <path d="M43.631,69.129C31.67,67.07 23.045,58.469 23.045,48.599C23.045,37.084 34.786,27.608 49.055,27.608C63.324,27.608 75.066,37.084 75.066,48.599C75.066,60.114 63.324,69.59 49.055,69.59C47.453,69.59 45.854,69.471 44.279,69.233" style="fill-opacity:0;fill-rule:nonzero;"/>
                        </g>
                        <g id="path4135" transform="matrix(1,0,0,1,0.645345,0)">
                            <path d="M31.892,114.28C24.234,113.127 18.712,108.313 18.712,102.788C18.712,96.342 26.23,91.038 35.367,91.038C44.505,91.038 52.023,96.342 52.023,102.788C52.023,109.234 44.505,114.539 35.367,114.539C34.341,114.539 33.316,114.472 32.307,114.339" style="fill:rgb(0,0,128);fill-opacity:0;fill-rule:nonzero;"/>
                        </g>
                        <g id="path4149" transform="matrix(0.970205,0,0,1.02721,-4.05878,-5.75038)">
                            <path d="M45.521,84.824C29.678,81.536 18.253,67.792 18.253,52.021C18.253,33.622 33.806,18.481 52.706,18.481C71.606,18.481 87.159,33.622 87.159,52.021C87.159,70.421 71.606,85.561 52.706,85.561C50.584,85.561 48.466,85.371 46.38,84.991" style="fill:rgb(101,180,255);fill-rule:nonzero;"/>
                        </g>
                        <g id="path4184" transform="matrix(0.646299,0,0,0.616811,5.12612,4.90138)">
                            <path d="M57.079,104.608C41.351,101.017 30.009,86.009 30.009,68.79C30.009,48.699 45.448,32.166 64.212,32.166C82.975,32.166 98.415,48.699 98.415,68.79C98.415,88.881 82.975,105.413 64.212,105.413C62.105,105.413 60.003,105.204 57.932,104.79" style="fill:white;fill-rule:nonzero;"/>
                        </g>
                    </g>
                </g>
            </g>
            <g transform="matrix(1.25934,0,0,1.25934,277.247,-202.325)">
                <circle cx="593.149" cy="488.729" r="213.039" style="fill:white;stroke:white;stroke-width:0.79px;"/>
            </g>
        </g>
        <g transform="matrix(0.420001,0,0,0.420001,856.223,182.356)">
            <g>
                <g>
                    <path d="M273.704,265.564C268.439,251.388 254.211,243.378 239.745,243.378C232.524,243.378 231.857,243.563 227.557,243.563L98.377,243.563C81.857,243.563 69.689,251.385 64.425,265.564L1.96,455.522C-3.991,471.55 4.052,489.418 19.92,495.428C35.791,501.44 53.481,493.317 59.434,477.292L76.041,432.578C76.041,432.578 77.226,428.069 77.226,447.754L77.226,711.41C77.226,734.46 95.728,753.145 118.555,753.145C141.381,753.145 159.883,734.46 159.883,711.41L159.883,539.163C159.883,539.163 159.682,537.64 161.286,537.64L176.804,537.64C178.335,537.64 178.25,539.163 178.25,539.163L178.25,711.41C178.25,734.46 196.752,753.145 219.578,753.145C242.404,753.145 260.907,734.46 260.907,711.41L260.907,447.754C260.907,427.753 262.643,434.055 262.643,434.055L278.701,477.296C284.65,493.324 302.344,501.444 318.215,495.432C334.083,489.418 342.128,471.554 336.175,455.528L273.704,265.564Z" style="fill:rgb(100,166,255);fill-rule:nonzero;stroke:rgb(100,166,255);stroke-width:2.38px;stroke-linecap:butt;stroke-miterlimit:2;"/>
                    <ellipse cx="169.885" cy="134.672" rx="88.734" ry="87.821" style="fill:rgb(100,166,255);stroke:rgb(100,166,255);stroke-width:2.38px;stroke-linecap:butt;stroke-miterlimit:2;"/>
                </g>
                <g>
                    <circle cx="622.595" cy="134.179" r="88.734" style="fill:rgb(255,153,214);stroke:rgb(255,153,214);stroke-width:2.38px;stroke-linecap:butt;stroke-miterlimit:2;"/>
                    <path d="M797.075,451.32L721.362,266.892C717.032,257.587 713.2,245.116 695.41,245.116L561.039,245.116C543.295,245.116 534.038,256.679 528.96,267.093L450.318,450.126C442.829,465.494 449.085,484.059 464.283,491.598C479.492,499.135 497.894,492.79 505.383,477.418L511.301,465.283C511.301,465.283 513.139,462.009 512.449,465.629C508.169,488.17 496.349,555.973 496.349,555.973C493.478,570.081 502.904,581.626 517.302,581.626L551.549,581.626C553.999,581.626 553.564,583.473 553.564,583.473L553.564,719.759C553.564,742.585 567.779,754.553 585.323,754.553C602.86,754.553 617.084,742.585 617.084,719.759L617.084,582.929C617.084,582.929 617.012,581.578 618.441,581.626C620.286,581.685 624.956,581.635 627.05,581.635C628.243,581.635 628.093,583.073 628.093,583.073L628.093,719.759C628.093,742.585 642.317,754.553 659.861,754.553C677.398,754.553 691.62,742.585 691.62,719.759L691.62,583.837C691.62,583.837 691.411,581.626 694.042,581.626L730.881,581.626C745.278,581.626 754.936,570.038 752.339,555.875C752.339,555.875 740.494,483.153 737.338,463.342C736.434,457.663 745.868,477.827 745.868,477.827C753.082,493.326 767.014,499.797 782.352,492.537C797.702,485.275 804.289,466.825 797.075,451.32Z" style="fill:rgb(255,153,214);fill-rule:nonzero;stroke:rgb(255,153,214);stroke-width:2.38px;stroke-linecap:butt;stroke-miterlimit:2;"/>
                </g>
                <g>
                    <g>
                        <g>
                            <path d="M414.836,737.898C414.836,746.284 407.977,753.145 399.588,753.145L393.053,753.145C384.667,753.145 377.806,746.284 377.806,737.898L377.806,69.951C377.806,61.564 384.667,54.703 393.053,54.703L399.588,54.703C407.975,54.703 414.836,61.564 414.836,69.951L414.836,737.898Z" style="fill:rgb(101,180,255);fill-rule:nonzero;"/>
                        </g>
                    </g>
                </g>
            </g>
        </g>
        <g transform="matrix(1,0,0,1,686.528,281.303)">
            <text x="218px" y="356.078px" style="font-family:'Arial-BoldMT', 'Arial', sans-serif;font-weight:700;font-size:144px;fill:rgb(101,180,255);stroke:rgb(100,166,255);stroke-width:1px;stroke-linecap:butt;stroke-miterlimit:2;">WC</text>
        </g>
    </g>
</svg>
