<?xml version="1.0" encoding="UTF-8" standalone="no"?>
<!DOCTYPE svg PUBLIC "-//W3C//DTD SVG 1.1//EN" "http://www.w3.org/Graphics/SVG/1.1/DTD/svg11.dtd">
<svg width="100%" height="100%" viewBox="0 0 670 929" version="1.1" xmlns="http://www.w3.org/2000/svg" xmlns:xlink="http://www.w3.org/1999/xlink" xml:space="preserve" xmlns:serif="http://www.serif.com/" style="fill-rule:evenodd;clip-rule:evenodd;stroke-linejoin:round;stroke-miterlimit:2;">
    <g transform="matrix(1,0,0,1,-689.197,-69.9981)">
        <g>
            <g transform="matrix(7.37235,0,0,7.37235,677.72,64.9506)">
                <g id="Map_pin_icon.svg">
                    <g>
                        <path id="path4127" d="M46.977,126.643C46.694,125.956 40.814,120.206 36.603,114.981C11.656,81.858 -16.158,51.083 16.32,13.683C30.701,-0.211 48.433,-1.003 66.663,5.473C117.992,35.175 80.829,83.628 56.427,115.481L46.977,126.643ZM62.417,75.872C96.654,51.387 70.185,4.239 32.569,19.913C21.585,25.77 16.135,35.961 15.944,47.981C15.42,59.674 21.629,69.452 31.47,75.441C38.526,79.282 41.627,79.975 49.616,79.499C54.794,79.191 57.777,78.345 62.417,75.872Z" style="fill:rgb(203,173,0);fill-opacity:0.98;fill-rule:nonzero;stroke:rgb(0,94,10);stroke-width:0.14px;"/>
                        <g id="path4129" transform="matrix(0.878295,0,0,1.0519,0.554741,-6.99527)">
                            <path d="M41.682,89.891C18.127,85.797 1.141,68.688 1.141,49.055C1.141,26.15 24.264,7.301 52.364,7.301C80.464,7.301 103.586,26.15 103.586,49.055C103.586,71.961 80.464,90.809 52.364,90.809C49.209,90.809 46.06,90.572 42.959,90.099" style="fill:rgb(203,173,0);fill-opacity:0.98;fill-rule:nonzero;stroke:rgb(0,94,10);stroke-width:0.14px;"/>
                        </g>
                        <g id="path4131" transform="matrix(1,0,0,1,0.645345,0)">
                            <path d="M43.631,69.129C31.67,67.07 23.045,58.469 23.045,48.599C23.045,37.084 34.786,27.608 49.055,27.608C63.324,27.608 75.066,37.084 75.066,48.599C75.066,60.114 63.324,69.59 49.055,69.59C47.453,69.59 45.854,69.471 44.279,69.233" style="fill-opacity:0;fill-rule:nonzero;"/>
                        </g>
                        <g id="path4135" transform="matrix(1,0,0,1,0.645345,0)">
                            <path d="M31.892,114.28C24.234,113.127 18.712,108.313 18.712,102.788C18.712,96.342 26.23,91.038 35.367,91.038C44.505,91.038 52.023,96.342 52.023,102.788C52.023,109.234 44.505,114.539 35.367,114.539C34.341,114.539 33.316,114.472 32.307,114.339" style="fill:rgb(0,0,128);fill-opacity:0;fill-rule:nonzero;"/>
                        </g>
                        <g id="path4149" transform="matrix(0.970205,0,0,1.02721,-4.05878,-5.75038)">
                            <path d="M45.521,84.824C29.678,81.536 18.253,67.792 18.253,52.021C18.253,33.622 33.806,18.481 52.706,18.481C71.606,18.481 87.159,33.622 87.159,52.021C87.159,70.421 71.606,85.561 52.706,85.561C50.584,85.561 48.466,85.371 46.38,84.991" style="fill:rgb(203,173,0);fill-rule:nonzero;stroke:rgb(0,94,10);stroke-width:0.14px;"/>
                        </g>
                        <g id="path4184" transform="matrix(0.646299,0,0,0.616811,5.12612,4.90138)">
                            <path d="M57.079,104.608C41.351,101.017 30.009,86.009 30.009,68.79C30.009,48.699 45.448,32.166 64.212,32.166C82.975,32.166 98.415,48.699 98.415,68.79C98.415,88.881 82.975,105.413 64.212,105.413C62.105,105.413 60.003,105.204 57.932,104.79" style="fill:white;fill-rule:nonzero;"/>
                        </g>
                    </g>
                </g>
            </g>
            <g transform="matrix(1.25934,0,0,1.25934,277.247,-202.325)">
                <circle cx="593.149" cy="488.729" r="213.039" style="fill:white;stroke:white;stroke-width:0.79px;stroke-linecap:round;stroke-miterlimit:1.5;"/>
            </g>
        </g>
        <g transform="matrix(0.461157,0,0,0.495,521.937,166.349)">
            <g transform="matrix(1,0,0,1,689.197,69.9981)">
                <path d="M495.047,266.688L371.739,266.275L390.439,148.528L513.747,148.941L495.047,266.688Z" style="fill:rgb(100,191,163);fill-rule:nonzero;"/>
                <path d="M363.628,317.345L363.597,317.542L304.814,317.345L286.114,435.092L344.897,435.289L310.63,651.058L433.938,651.472L486.936,317.759L363.628,317.345Z" style="fill:rgb(100,191,163);fill-rule:nonzero;"/>
            </g>
            <g transform="matrix(1,0,0,1,689.197,69.9981)">
                <path d="M738.463,146.033C727.122,129.853 714.262,114.503 699.88,100.12C685.636,85.877 670.423,73.016 654.383,61.953C597.408,21.573 529.922,0 459.119,0L340.744,0C250.027,0 164.564,35.541 99.983,100.12C35.541,164.564 0,250.027 0,340.744L0,459.258C0,533.795 24.063,604.738 68.314,663.509C77.856,676.233 88.505,688.402 99.981,699.88C111.32,711.22 123.352,721.73 135.938,731.133C194.711,775.8 265.928,800 340.744,800L459.119,800C549.836,800 635.298,764.459 699.88,699.88C764.323,635.438 799.862,549.975 799.862,459.258L799.862,340.744C799.862,270.216 778.427,202.869 738.463,146.033ZM722.144,459.258C722.144,604.184 604.183,722.144 459.119,722.144L340.744,722.144C195.68,722.144 77.719,604.184 77.719,459.258L77.719,340.744C77.719,195.817 195.68,77.856 340.744,77.856L459.119,77.856C604.183,77.856 722.144,195.816 722.144,340.744L722.144,459.258Z" style="fill:rgb(100,191,163);fill-rule:nonzero;"/>
            </g>
        </g>
    </g>
</svg>
