<?xml version="1.0" encoding="UTF-8" standalone="no"?>
<!DOCTYPE svg PUBLIC "-//W3C//DTD SVG 1.1//EN" "http://www.w3.org/Graphics/SVG/1.1/DTD/svg11.dtd">
<svg width="100%" height="100%" viewBox="0 0 670 929" version="1.1" xmlns="http://www.w3.org/2000/svg" xmlns:xlink="http://www.w3.org/1999/xlink" xml:space="preserve" xmlns:serif="http://www.serif.com/" style="fill-rule:evenodd;clip-rule:evenodd;stroke-linejoin:round;stroke-miterlimit:2;">
    <g transform="matrix(1,0,0,1,-689.197,-69.9981)">
        <g>
            <g transform="matrix(7.37235,0,0,7.37235,677.72,64.9506)">
                <g id="Map_pin_icon.svg">
                    <g>
                        <path id="path4127" d="M46.977,126.643C46.694,125.956 40.814,120.206 36.603,114.981C11.656,81.858 -16.158,51.083 16.32,13.683C30.701,-0.211 48.433,-1.003 66.663,5.473C117.992,35.175 80.829,83.628 56.427,115.481L46.977,126.643ZM62.417,75.872C96.654,51.387 70.185,4.239 32.569,19.913C21.585,25.77 16.135,35.961 15.944,47.981C15.42,59.674 21.629,69.452 31.47,75.441C38.526,79.282 41.627,79.975 49.616,79.499C54.794,79.191 57.777,78.345 62.417,75.872Z" style="fill:rgb(0,94,10);fill-opacity:0.98;fill-rule:nonzero;stroke:rgb(0,94,10);stroke-width:0.14px;"/>
                        <g id="path4129" transform="matrix(0.878295,0,0,1.0519,0.554741,-6.99527)">
                            <path d="M41.682,89.891C18.127,85.797 1.141,68.688 1.141,49.055C1.141,26.15 24.264,7.301 52.364,7.301C80.464,7.301 103.586,26.15 103.586,49.055C103.586,71.961 80.464,90.809 52.364,90.809C49.209,90.809 46.06,90.572 42.959,90.099" style="fill:rgb(0,94,10);fill-opacity:0.98;fill-rule:nonzero;stroke:rgb(0,94,10);stroke-width:0.14px;"/>
                        </g>
                        <g id="path4131" transform="matrix(1,0,0,1,0.645345,0)">
                            <path d="M43.631,69.129C31.67,67.07 23.045,58.469 23.045,48.599C23.045,37.084 34.786,27.608 49.055,27.608C63.324,27.608 75.066,37.084 75.066,48.599C75.066,60.114 63.324,69.59 49.055,69.59C47.453,69.59 45.854,69.471 44.279,69.233" style="fill-opacity:0;fill-rule:nonzero;"/>
                        </g>
                        <g id="path4135" transform="matrix(1,0,0,1,0.645345,0)">
                            <path d="M31.892,114.28C24.234,113.127 18.712,108.313 18.712,102.788C18.712,96.342 26.23,91.038 35.367,91.038C44.505,91.038 52.023,96.342 52.023,102.788C52.023,109.234 44.505,114.539 35.367,114.539C34.341,114.539 33.316,114.472 32.307,114.339" style="fill:rgb(0,0,128);fill-opacity:0;fill-rule:nonzero;"/>
                        </g>
                        <g id="path4149" transform="matrix(0.970205,0,0,1.02721,-4.05878,-5.75038)">
                            <path d="M45.521,84.824C29.678,81.536 18.253,67.792 18.253,52.021C18.253,33.622 33.806,18.481 52.706,18.481C71.606,18.481 87.159,33.622 87.159,52.021C87.159,70.421 71.606,85.561 52.706,85.561C50.584,85.561 48.466,85.371 46.38,84.991" style="fill:rgb(0,94,10);fill-rule:nonzero;stroke:rgb(0,94,10);stroke-width:0.14px;"/>
                        </g>
                        <g id="path4184" transform="matrix(0.646299,0,0,0.616811,5.12612,4.90138)">
                            <path d="M57.079,104.608C41.351,101.017 30.009,86.009 30.009,68.79C30.009,48.699 45.448,32.166 64.212,32.166C82.975,32.166 98.415,48.699 98.415,68.79C98.415,88.881 82.975,105.413 64.212,105.413C62.105,105.413 60.003,105.204 57.932,104.79" style="fill:white;fill-rule:nonzero;"/>
                        </g>
                    </g>
                </g>
            </g>
            <g transform="matrix(1.25934,0,0,1.25934,277.247,-202.325)">
                <circle cx="593.149" cy="488.729" r="213.039" style="fill:white;stroke:white;stroke-width:0.79px;stroke-linecap:round;stroke-miterlimit:1.5;"/>
            </g>
        </g>
        <g transform="matrix(0.883642,0,0,0.883642,207.743,127.825)">
            <g transform="matrix(0.539091,0,0,0.539091,704.561,85.3617)">
                <path d="M366.667,200C311.438,200 266.667,244.772 266.667,300L266.667,566.667C266.667,585.077 281.591,600 300,600C318.41,600 333.333,585.077 333.333,566.667L333.333,466.667L400.15,466.667C407.163,466.623 414.2,465.8 421.107,464.65C432.663,462.723 448.583,458.807 464.907,450.647C481.363,442.417 498.83,429.553 512.11,409.633C525.53,389.503 533.333,364.163 533.333,333.332C533.333,302.5 525.53,277.159 512.11,257.031C498.83,237.111 481.36,224.247 464.907,216.019C448.583,207.858 432.663,203.943 421.107,202.016C414.16,200.858 407.057,200.003 400,200L366.667,200ZM333.333,400L333.333,300C333.333,281.591 348.257,266.667 366.667,266.667L400.013,266.673C412.01,267.073 424.393,270.298 435.093,275.648C443.64,279.921 451.17,285.807 456.64,294.011C461.97,302.007 466.667,314.166 466.667,333.332C466.667,352.5 461.97,364.657 456.64,372.653C451.17,380.86 443.637,386.743 435.093,391.017C424.393,396.367 412.01,399.593 400.01,399.993L333.333,400Z" style="fill:rgb(0,94,10);stroke:rgb(0,94,10);stroke-width:2.1px;"/>
            </g>
            <g transform="matrix(0.539091,0,0,0.539091,704.561,85.3617)">
                <path d="M666.667,33.333C721.897,33.333 766.667,78.105 766.667,133.333L766.667,666.667C766.667,721.897 721.897,766.667 666.667,766.667L133.333,766.667C78.105,766.667 33.333,721.897 33.333,666.667L33.333,133.333C33.333,78.105 78.105,33.333 133.333,33.333L666.667,33.333ZM666.667,100C685.077,100 700,114.924 700,133.333L700,666.667C700,685.077 685.077,700 666.667,700L133.333,700C114.924,700 100,685.077 100,666.667L100,133.333C100,114.924 114.924,100 133.333,100L666.667,100Z" style="fill:rgb(0,94,10);stroke:rgb(0,94,10);stroke-width:2.1px;"/>
            </g>
        </g>
    </g>
</svg>
